<?xml version="1.0" encoding="UTF-8" standalone="no"?>
<!DOCTYPE svg PUBLIC "-//W3C//DTD SVG 1.1//EN" "http://www.w3.org/Graphics/SVG/1.1/DTD/svg11.dtd">
<svg version="1.1" xmlns="http://www.w3.org/2000/svg" xmlns:xlink="http://www.w3.org/1999/xlink" preserveAspectRatio="xMidYMid meet" viewBox="-1 -1 52 52" width="48" height="48"><defs><path d="M0 0L48 0L48 48L0 48L0 0Z" id="ffnyaQODx"></path><path d="M16 4C13.79 4 12 5.79 12 8C12 10.4 12 29.6 12 32C12 34.21 13.79 36 16 36C18.4 36 37.6 36 40 36C42.21 36 44 34.21 44 32C44 29.6 44 10.4 44 8C44 5.79 42.21 4 40 4C35.2 4 18.4 4 16 4ZM30 14C30 20.6 30 24.27 30 25C30 27.76 27.76 30 25 30C22.24 30 20 27.76 20 25C20 22.24 22.24 20 25 20C26.13 20 27.16 20.39 28 21.02C28 20.29 28 16.61 28 10L36 10L36 14L30 14ZM4 12C4 28.8 4 38.13 4 40C4 42.21 5.79 44 8 44C9.87 44 19.2 44 36 44L36 40L8 40L8 12L4 12Z" id="c2GMZfbG1N"></path></defs><g><g><use xlink:href="#ffnyaQODx" opacity="1" fill="#000000" fill-opacity="0"></use><g><use xlink:href="#ffnyaQODx" opacity="1" fill-opacity="0" stroke="#000000" stroke-width="1" stroke-opacity="0"></use></g></g><g><use xlink:href="#c2GMZfbG1N" opacity="1" fill="#d95d39" fill-opacity="1"></use><g><use xlink:href="#c2GMZfbG1N" opacity="1" fill-opacity="0" stroke="#000000" stroke-width="1" stroke-opacity="0"></use></g></g></g></svg>