<svg width="24" height="24" xmlns="http://www.w3.org/2000/svg">

 <g>
  <title>background</title>
  <rect fill="none" id="canvas_background" height="402" width="582" y="-1" x="-1"/>
 </g>
 <g>
  <title>Layer 1</title>
  <path fill="#ffffff" id="message" d="m20,1l-16,0c-2.2,0 -4,1.8 -4,4l0,10c0,2.200001 1.8,4 4,4l0,3c0,0.9 1.1,1.299999 1.7,0.700001l3.7,-3.700001l10.6,0c2.200001,0 4,-1.799999 4,-4l0,-10c0,-2.2 -1.799999,-4 -4,-4zm-6,12l-6,0c-0.6,0 -1,-0.4 -1,-1c0,-0.6 0.4,-1 1,-1l6,0c0.6,0 1,0.4 1,1c0,0.6 -0.4,1 -1,1zm2,-4l-8,0c-0.6,0 -1,-0.4 -1,-1c0,-0.6 0.4,-1 1,-1l8,0c0.6,0 1,0.4 1,1c0,0.6 -0.4,1 -1,1z"/>
 </g>
</svg>