<svg width="96" height="96" xmlns="http://www.w3.org/2000/svg">

 <g>
  <title>background</title>
  <rect fill="none" id="canvas_background" height="402" width="582" y="-1" x="-1"/>
 </g>
 <g>
  <title>Layer 1</title>
  <path fill="#ffffff" id="svg_1" d="m48,4c-24.299999,0 -44,19.698999 -44,44s19.700001,44 44,44s44,-19.698997 44,-44s-19.699997,-44 -44,-44zm0,80c-19.882,0 -36,-16.117996 -36,-36s16.118,-36 36,-36s36,16.118 36,36s-16.117996,36 -36,36z"/>
  <path fill="#ffffff" id="svg_2" d="m64.283997,37.169998c-1.561996,-1.560997 -4.094997,-1.560997 -5.656998,0l-14.141998,14.143002l-5.657001,-5.657001c-1.562,-1.561996 -4.093998,-1.561996 -5.656998,0c-1.562002,1.562 -1.562002,4.095001 0,5.658001l8.483997,8.483002c1.562,1.562 4.096001,1.562 5.658001,0l16.969997,-16.970001c1.563004,-1.562 1.565002,-4.093998 0.000999,-5.657001z"/>
 </g>
</svg>