<svg id="Layer_1" data-name="Layer 1" xmlns="http://www.w3.org/2000/svg" viewBox="0 0 3000 3000"><defs><style>.cls-1{fill:#f59320;}</style></defs><path class="cls-1" d="M1210.53,2534.45a32.63,32.63,0,0,0,11.59-6.43,39,39,0,0,0,9.46-12.24q4-7.65,4-19.28,0-12.24-7.93-20.51t-26.25-8.26a61.16,61.16,0,0,0-23.81,4.59,96.24,96.24,0,0,0-21,12.24,168.33,168.33,0,0,0-19.23,17.14q-9.16,9.5-17.7,19.29l11-50.2h-61.65l-41.53,196.5H1026q-13.44,31.22-28.39,49T968,2734q-11.61,0-15.26-8.57a47.78,47.78,0,0,1-3.66-19,113.93,113.93,0,0,1,3.05-27.55l44.56-208.13H935l-41.51,196.5q-6.72,31.83-25.33,49.28T831.84,2734a25.53,25.53,0,0,1-19.53-8.57q-7.95-8.57-7.94-26.32a83.13,83.13,0,0,1,2.44-20.2l44.56-208.13H789.72l-41.5,196.5a144,144,0,0,0-3.67,31.22,106.32,106.32,0,0,0,5.19,34.28,74.31,74.31,0,0,0,14.35,25.71,65.76,65.76,0,0,0,21.36,16.22,60.19,60.19,0,0,0,26.25,5.82q20.74,0,42.42-13.78t39.37-45q2.43,31.21,15.87,45t33,13.78a87.12,87.12,0,0,0,22.28-3.37q12.51-3.36,26.25-15,10.51-8.9,21.56-24.08l-8.2,38.77h61L1113.47,2551a240.6,240.6,0,0,1,27.78-20.51q14.94-9.48,28.38-9.48,6.7,0,10.38,2.44a42.68,42.68,0,0,1,6.41,5.21c1.83,1.83,3.66,3.57,5.49,5.2s4.58,2.45,8.24,2.45A37,37,0,0,0,1210.53,2534.45Z"/><path class="cls-1" d="M1449.49,2488.24a50.09,50.09,0,0,0-19.53-15q-12.21-5.5-30.52-5.51a110.64,110.64,0,0,0-17.39,1.53,73.17,73.17,0,0,0-20.15,6.73,110.25,110.25,0,0,0-22.28,15q-11.59,9.8-23.19,25.71l9.77-45.91h-61.65l-64.71,306.07h61L1303,2579.75q29.89-65.49,67.75-65.5,15.87,0,21.37,9.18t5.49,24.49a167.06,167.06,0,0,1-4.58,36.73q-4.58,20.2-10.07,41.93t-10.07,43.77c-3.05,14.69-35.94,133-35.94,146.05q0,33.67,14.65,51.12t37.84,17.44a71.65,71.65,0,0,0,14.65-1.83,51.92,51.92,0,0,0,16.79-7q8.23-5.19,14.34-15.31t7.33-26.62q-10.4,4.29-18.93,4.28-22,0-22-32.44c0-11,32.89-127.79,35.94-141.47s6.41-27.64,10.07-41.93,7-28.86,10.08-43.77a212.15,212.15,0,0,0,4.57-42.54,121.53,121.53,0,0,0-2.74-26A54.6,54.6,0,0,0,1449.49,2488.24Z"/><path class="cls-1" d="M2208.67,2517.31q-7.34-19.57-19.23-30.3a59.3,59.3,0,0,0-26.25-14.08,126.64,126.64,0,0,0-29-3.36,71.94,71.94,0,0,0-30.83,6.42,117,117,0,0,0-26.55,17.45L2108,2348.36l-62.26,8.57-66.53,310.36a2.33,2.33,0,0,0-.05.28q-13.38,31-28.27,48.69t-29.6,17.75q-11.61,0-15.26-8.57a47.78,47.78,0,0,1-3.66-19,113.93,113.93,0,0,1,3-27.55l44.56-208.13h-61.65l-6.11,29.38q-4.89-19-20.14-25.71a73.91,73.91,0,0,0-29.91-6.73,110.59,110.59,0,0,0-47.3,10.1,137.54,137.54,0,0,0-38.76,26.93,200.42,200.42,0,0,0-30.52,38.88,249.42,249.42,0,0,0-22,45.91,320.21,320.21,0,0,0-13.12,47.74,238.29,238.29,0,0,0-4.58,44.69q0,26.94,6.71,45.61t17.71,30.6a63.9,63.9,0,0,0,25,17.14,81.92,81.92,0,0,0,28.69,5.21q29.29,0,54-17.45a128.54,128.54,0,0,0,38.76-42.54q2.43,31.83,15.57,45.91t33.26,14.08a87.12,87.12,0,0,0,22.28-3.37q12.51-3.36,26.25-15t28.38-34q1.2-1.83,2.39-3.77a79.28,79.28,0,0,0,4.56,20.6q5.19,13.47,14.65,21.12a58.3,58.3,0,0,0,22.89,11,120.54,120.54,0,0,0,29.3,3.37q37.85,0,69-19.59a194.51,194.51,0,0,0,53.71-50.5,242.93,242.93,0,0,0,34.79-68.26q12.21-37.33,12.21-72.84Q2216,2536.9,2208.67,2517.31Zm-361.9,150a86.58,86.58,0,0,1-10.38,26.32,96.75,96.75,0,0,1-16.78,21.12,84,84,0,0,1-19.84,14.08,44.83,44.83,0,0,1-20.14,5.2q-17.72,0-28.08-12.85t-10.38-47.75q0-22.63,6.72-52.64a237.09,237.09,0,0,1,20.14-56.32q13.42-26.31,33-44.69t44.56-18.36q14,0,21.36,8.26a37.5,37.5,0,0,1,9.16,18.67Zm305.74-32.75a205.1,205.1,0,0,1-20.45,52q-13.12,23-30.82,37.34t-37.85,14.39q-30.52,0-30.52-31.83a67.08,67.08,0,0,1,.92-11c.61-3.67,1.31-7.75,2.13-12.24l36-161a142.36,142.36,0,0,1,21.36-15,45.49,45.49,0,0,1,22.59-5.81q22,0,33,19.89t11,54.79A238.58,238.58,0,0,1,2152.51,2634.54Z"/><path class="cls-1" d="M2447.14,2719.32q-11.83-14.68-11.84-45.91v-9.49a76.35,76.35,0,0,1,.61-9.49q71.13-7.33,111.56-39.48t40.43-84.17q0-19-5.5-31.22t-14.65-19.28a54.24,54.24,0,0,0-20.75-9.8,105.68,105.68,0,0,0-24.41-2.75q-28.1,0-50.36,11a137.94,137.94,0,0,0-39.37,29.07,192.35,192.35,0,0,0-29.61,41.32,278.17,278.17,0,0,0-20.14,47.14,321.3,321.3,0,0,0-11.29,46.52q-2.13,13.18-3,24.49H2350q-13.43,31.22-28.38,49t-29.6,17.75q-11.61,0-15.26-8.57a47.79,47.79,0,0,1-3.67-19,113.41,113.41,0,0,1,3.06-27.55l71.41-330.56-63.48,8.57-66.53,310.36q-2.45,11-4,22.65a173.61,173.61,0,0,0-1.52,22.65,120.12,120.12,0,0,0,2.74,26.32,63.36,63.36,0,0,0,8.85,21.43,44.38,44.38,0,0,0,16.48,14.69q10.38,5.5,26.25,5.51a87.24,87.24,0,0,0,22.28-3.37q12.51-3.36,26.25-15t28.38-34q12.45-19,24.89-49.68c0,1.38-.05,2.74-.05,4.07q0,26.32,7.62,45t20.15,30.3a79.18,79.18,0,0,0,28.69,17.14,104.33,104.33,0,0,0,33.87,5.51,178.55,178.55,0,0,0,35.1-3.37,87.5,87.5,0,0,0,30.22-11.94A78.84,78.84,0,0,0,2547,2742q9.77-14.68,13.43-37.34-31,29.38-72.29,29.38Q2459,2734,2447.14,2719.32Zm4.27-136.2a233.92,233.92,0,0,1,19.42-42.55q11.22-19,25.8-30.91t31.57-11.94q14.57,0,18.51,8.27a42.66,42.66,0,0,1,3.95,18.67q0,41.64-30.35,69.78T2439,2630.56A308.07,308.07,0,0,1,2451.41,2583.12Z"/><path class="cls-1" d="M798.54,2333.22a255.83,255.83,0,0,0,33.12,2.17c43.21,0,85-9.39,122.42-27.45,3-1.43,6-2.9,9.1-4.43,20.53-10.06,44.86-20.77,50.64-45.49,4.21-18-6.31-36.56-17.41-50.11,0,0-10.42,11.76-37.34,28.2a35.78,35.78,0,0,0-3.55,1.79c-4.5,2.75-8.92,5.37-13.31,7.87-6.72,3.62-14.13,7.37-22.33,11.21-2.88,1.35-5.58,2.68-8.15,4-23.22,9.74-47.26,15.2-76.47,15.2-53.28,0-105.85-18.78-158.42-38.27-38.16-13.73-82.09-32.5-123.13-32.5-31.69,0-64.81,12.28-90,33.22-28.09,23.11-47.53,56.33-45.37,94.6,3.21,56.79,65.08,78.77,114.22,76.62,12-.53,24.22-4.07,33.15-12.11,7.87-7.08,14.26-16,19.79-24.95,4.13-6.73,14.07-20.62,12.28-29-31.82,2.9-52.26,8.93-84.21,9-5.16,0-21.94-3.25-26.61-5.45-24.64-11.6,2.51-51.16,14.19-61.7,13.68-13,31.69-21.67,48.25-21.67,35.28,0,77.77,18.78,110.89,32.5,25.2,10.11,51.85,19.5,78.49,26L584,2757.13a40.11,40.11,0,0,0-2.16,12.27c.72,16.61,16.56,28.89,32.41,28.89,12.24,0,21.6-7.22,25.2-18.06l157.7-442A13.4,13.4,0,0,0,798.54,2333.22Z"/><path class="cls-1" d="M1763.12,2333a254.85,254.85,0,0,0,33.05,2.16c43.12,0,84.79-9.37,122.16-27.38,6.88-3.25,13.75-6.75,20.5-10.46,16.34-8,24.22-13.09,35.42-31.48,13.8-22.65-15-57.88-15-57.88s-20.07,22.65-76.53,49.07c-4.51,2.11-8.62,4.18-12.38,6.21-21.4,8.25-43.79,12.83-70.52,12.83-53.18,0-105.63-18.74-158.09-38.19-38.08-13.7-81.91-32.43-122.87-32.43-31.62,0-64.67,12.25-89.82,33.15-28,23.06-47.42,56.21-45.27,94.4,2.87,56.21,55.33,75.66,104.19,75.66,13.56,0,29.51-.28,39.6-7.15.26-.11.53-.23.77-.35,11.22-5.6,27.68-56.06,27.68-56.06l-48.08,3h-.57c-10.06,0-20.83,1.44-30.89,1.44-15.81,0-31.62,1.44-33.06-18-.72-15.86,8.62-33.15,23-46.12,13.66-13,31.62-21.62,48.15-21.62,35.21,0,77.6,18.73,110.66,32.43,25.15,10.09,51.73,19.45,78.32,25.94L1549,2756a40.06,40.06,0,0,0-2.16,12.26c.72,16.57,16.53,28.82,32.34,28.82,12.21,0,21.56-7.21,25.15-18l157.36-441A13.35,13.35,0,0,0,1763.12,2333Z"/><path class="cls-1" d="M970,945.58c-57.29-23.73-130.78-56.21-191.8-56.21-12.61,0-25.7,2.91-38.42,8.07a794.09,794.09,0,0,0-28.26,145.26,46,46,0,0,0,4.71.29c55.26,0,90.61-10.48,145.64-15.49,3.1,14.55-14.08,38.57-21.24,50.2-9.56,15.55-20.61,30.91-34.21,43.17-15.45,13.91-36.62,20-57.35,20.94a267.59,267.59,0,0,1-41.28-1.42,792.53,792.53,0,0,0,174,479.14l224-629C1059.7,979.31,1013.61,963.07,970,945.58Z"/><path class="cls-1" d="M2038.44,881.65a440.8,440.8,0,0,1-57.17-3.73,23.2,23.2,0,0,1-2.49,8.72L1706.6,1649.45c-6.22,18.7-22.38,31.16-43.5,31.16-27.35,0-54.69-21.19-55.93-49.85a69.16,69.16,0,0,1,3.73-21.19l267.21-750.35c-46-11.22-92-27.42-135.47-44.87-57.17-23.69-130.5-56.09-191.4-56.09-28.59,0-59.66,15-83.27,37.39-14.31,12.91-25.73,28.31-32.61,44.28-8.9,4.62-18.1,9.15-27.47,13.54-4.72,2.21-9.43,4.5-14,6.83a304,304,0,0,1-68.7,19.77c0-.72-.1-1.43-.14-2.15-3.73-66.07,29.83-123.4,78.3-163.29,43.5-36.14,100.67-57.33,155.35-57.33,70.85,0,146.66,32.41,212.53,56.09,90.73,33.65,181.46,66.06,273.43,66.06,46.23,0,85-7.92,122-22.2,6.5-3.5,13.61-7.08,21.42-10.73q4.14-1.93,8.14-3.87C2061.86,495.46,1800.45,327.73,1500,327.73c-318.61,0-593.29,188.59-719.13,460.53,1.61,0,3.23-.06,4.84-.06,71,0,147,32.48,213,56.21,90.92,33.72,181.84,66.2,274,66.2,50.52,0,92.1-9.45,132.26-26.29,4.44-2.27,9.12-4.57,14.1-6.9,14.18-6.64,27-13.13,38.62-19.4,7.59-4.31,15.24-8.85,23-13.61a64,64,0,0,1,6.13-3.09c46.57-28.44,64.59-48.77,64.59-48.77,19.2,23.44,37.4,55.5,30.11,86.67-10,42.76-52.06,61.28-87.58,78.67q-7.9,4-15.74,7.68c-64.77,31.23-137,47.46-211.74,47.46a442.65,442.65,0,0,1-57.29-3.74,23.34,23.34,0,0,1-2.49,8.74L961.44,1705.29C1102.8,1836.7,1292,1917,1500,1917c437.61,0,792.37-355.78,792.37-794.65a794.86,794.86,0,0,0-52-283.72C2178.16,867,2109.43,881.65,2038.44,881.65ZM1575.08,995.81c-.43.21-.89.41-1.34.6-17.45,11.9-45,12.38-68.49,12.38a294.18,294.18,0,0,1-50.53-4.25,635.46,635.46,0,0,0,92.9-45,153.88,153.88,0,0,0,31.51-24.11,112.4,112.4,0,0,0,13.64-16.67c1.25-1.9,8.92-18.54,9.74-18.59l20.43-1.3S1594.49,986.13,1575.08,995.81Z"/></svg>