<?xml version="1.0" encoding="UTF-8" standalone="no"?>
<!DOCTYPE svg PUBLIC "-//W3C//DTD SVG 1.1//EN" "http://www.w3.org/Graphics/SVG/1.1/DTD/svg11.dtd">
<svg version="1.1" xmlns="http://www.w3.org/2000/svg" xmlns:xlink="http://www.w3.org/1999/xlink" preserveAspectRatio="xMidYMid meet" viewBox="17.564943191113308 29.03146666666666 466.87011361777337 148.9685333333333" width="462.87" height="144.97"><defs><path d="M190.07 98.86C190.91 98.14 191.6 97.25 192.09 96.25C192.94 94.62 192.86 92.55 192.94 92.14C192.94 89.53 191.42 88.2 191.25 87.76C189.55 86 186.21 86.18 185.65 86C183.91 85.99 182.18 86.32 180.57 86.98C178.97 87.66 177.46 88.53 176.08 89.59C174.62 90.7 173.25 91.93 171.98 93.25C170.68 94.6 169.42 95.97 168.2 97.36L170.55 86.65L157.39 86.65L148.53 128.57C148.35 128.57 148.25 128.57 148.23 128.57C145.36 135.23 142.78 137.98 142.17 139.03C138.98 142.82 136.49 142.44 135.86 142.81C133.38 142.81 132.93 141.17 132.6 140.99C132.07 139.7 131.8 138.32 131.82 136.93C131.8 134.95 132.02 132.98 132.47 131.06C133.11 128.1 136.27 113.3 141.98 86.65L128.82 86.65C123.51 111.81 120.56 125.78 119.97 128.57C118.53 135.36 115.11 138.04 114.57 139.09C110.6 142.81 107.59 142.44 106.82 142.81C105.23 142.84 103.71 142.17 102.65 140.98C100.96 139.15 101.13 135.93 100.96 135.36C100.96 133.91 101.13 132.47 101.48 131.06C102.11 128.1 105.28 113.3 110.99 86.65L97.83 86.65C92.51 111.81 89.56 125.78 88.97 128.57C88.47 130.76 88.21 132.99 88.19 135.23C88.16 137.72 88.53 140.19 89.3 142.55C89.94 144.56 90.98 146.43 92.36 148.03C93.62 149.49 95.17 150.66 96.91 151.49C98.66 152.32 100.58 152.75 102.51 152.73C106.94 152.73 110.66 150.09 111.56 149.79C116.19 146.85 119.12 141.15 119.96 140.19C120.48 146.85 123.01 148.83 123.35 149.79C126.22 152.73 129.68 152.44 130.39 152.73C132 152.7 133.6 152.46 135.14 152.02C137.81 151.3 140.18 149.14 140.74 148.82C142.24 147.55 143.77 145.84 145.34 143.68L143.59 151.95L156.61 151.95C162.78 123.04 166.21 106.97 166.89 103.76C168.76 102.16 170.74 100.7 172.82 99.39C176.02 97.36 178.27 97.56 178.87 97.36C179.83 97.36 180.56 97.54 181.09 97.88C181.58 98.21 182.03 98.58 182.45 99C182.84 99.39 183.24 99.76 183.63 100.11C184.02 100.45 184.6 100.63 185.38 100.63C186.14 100.6 186.88 100.47 187.6 100.24C188.51 99.95 189.35 99.49 190.07 98.86Z" id="k4LvYTQzxz"></path><path d="M234.41 87.17C231.8 86 228.55 86.12 227.9 86C226.66 86.01 225.41 86.12 224.19 86.33C222.69 86.59 221.25 87.08 219.89 87.76C218.18 88.63 216.58 89.7 215.14 90.96C213.49 92.36 211.84 94.18 210.19 96.45L212.27 86.65L199.12 86.65L185.32 151.95L198.33 151.95C203.73 126.72 206.73 112.7 207.33 109.9C213.71 95.93 220.34 97.32 221.78 95.93C225.17 95.93 225.89 97.69 226.34 97.88C227.52 99.84 227.4 102.59 227.52 103.11C227.48 105.75 227.15 108.38 226.54 110.94C225.56 115.26 224.6 119 224.39 119.89C223.22 124.52 222.46 128.29 222.24 129.23C221.6 132.36 214.57 157.6 214.57 160.37C214.57 167.56 217.39 170.19 217.7 171.28C220.82 175 224.96 174.63 225.77 175C226.82 174.98 227.87 174.85 228.9 174.61C230.17 174.33 231.38 173.82 232.48 173.12C234.24 172 235.23 170.18 235.54 169.85C236.84 167.7 236.94 164.74 237.1 164.17C234.89 165.09 233.47 164.99 233.06 165.08C228.37 165.08 228.84 158.86 228.37 158.16C228.37 155.82 235.39 130.9 236.04 127.98C236.69 125.07 237.41 122.09 238.19 119.04C238.97 115.99 239.68 112.88 240.33 109.7C240.96 106.72 241.29 103.68 241.31 100.63C241.32 98.76 241.12 96.9 240.72 95.08C240.37 93.37 239.64 91.76 238.58 90.37C237.47 88.98 236.04 87.88 234.41 87.17Z" id="a5zv5ieCL"></path><path d="M396.43 90.11C394.85 88.65 392.92 87.62 390.83 87.11C388.8 86.63 386.73 86.39 384.65 86.39C382.38 86.36 380.13 86.83 378.07 87.76C376.02 88.74 374.11 89.99 372.4 91.49C372.85 89.42 375.06 79.11 379.05 60.54L365.76 62.36L351.57 128.57C351.56 128.61 351.56 128.63 351.56 128.63C348.7 135.25 346.13 137.98 345.53 139.02C342.35 142.8 339.85 142.43 339.21 142.81C336.74 142.81 336.28 141.16 335.96 140.98C335.42 139.7 335.16 138.32 335.18 136.93C335.15 134.95 335.37 132.97 335.82 131.05C336.45 128.09 339.62 113.29 345.32 86.65L332.17 86.65C331.39 90.41 330.96 92.5 330.87 92.92C329.83 88.86 327 87.98 326.57 87.43C324.57 86.51 322.4 86.02 320.19 86C316.71 85.96 313.26 86.69 310.1 88.15C307.03 89.57 304.23 91.52 301.83 93.89C299.33 96.38 297.14 99.17 295.32 102.19C293.43 105.28 291.85 108.57 290.63 111.98C289.43 115.3 288.5 118.71 287.83 122.17C287.2 125.31 286.87 128.5 286.85 131.7C286.85 137.45 288.14 140.46 288.28 141.43C289.71 145.41 291.68 147.31 292.06 147.96C293.52 149.59 295.35 150.84 297.39 151.62C299.35 152.35 301.42 152.73 303.51 152.73C309.76 152.73 313.88 149.38 315.03 149.01C318.44 146.64 321.26 143.54 323.3 139.93C323.82 146.72 326.29 148.74 326.62 149.72C329.42 152.73 333.01 152.43 333.72 152.73C335.33 152.7 336.92 152.45 338.47 152.01C341.14 151.29 343.51 149.13 344.07 148.81C347 146.33 349.52 142.28 350.12 141.56C350.29 141.3 350.46 141.03 350.63 140.75C350.76 142.25 351.09 143.73 351.61 145.15C352.71 148.02 354.42 149.2 354.73 149.65C356.17 150.78 357.83 151.59 359.62 152C361.66 152.49 363.76 152.73 365.87 152.72C373.94 152.72 379.11 148.96 380.59 148.54C385.06 145.71 388.95 142.05 392.05 137.76C395.28 133.33 397.78 128.42 399.47 123.2C402.07 115.24 401.81 109.22 402.07 107.66C402.09 103.06 401.58 99.37 400.53 96.58C398.07 92.7 396.71 90.55 396.43 90.11ZM323.33 128.58C322.9 130.56 322.16 132.46 321.12 134.19C320.14 135.86 318.93 137.37 317.54 138.7C316.28 139.9 314.85 140.91 313.3 141.7C311.98 142.4 310.51 142.78 309.01 142.81C305.23 142.81 303.61 140.35 303.02 140.07C300.8 137.33 301.02 130.9 300.8 129.88C300.8 125.06 302.09 119.78 302.24 118.65C303.15 114.48 304.6 110.45 306.53 106.64C309.39 101.03 312.87 98.06 313.57 97.11C317.75 93.18 322.13 93.58 323.08 93.19C326.06 93.19 327.18 94.77 327.63 94.95C328.65 96.07 329.33 97.45 329.59 98.93C328.34 104.86 324.58 122.65 323.33 128.58ZM384.19 132.69C381.39 137.57 378.27 139.85 377.61 140.65C373.84 143.72 370.35 143.41 369.54 143.72C363.03 143.72 363.68 137.61 363.03 136.93C363.03 136.14 363.1 135.36 363.23 134.58C363.36 133.8 363.51 132.93 363.68 131.97C364.45 128.54 370.59 101.06 371.36 97.62C372.78 96.42 374.3 95.35 375.92 94.42C377.39 93.6 379.05 93.17 380.74 93.18C385.43 93.18 387.07 97 387.78 97.43C390.12 101.67 389.89 107.95 390.12 109.12C390.12 113.32 389.59 117.51 388.55 121.59C386.99 127.8 384.63 131.58 384.19 132.69Z" id="i4PkfHIpIv"></path><path d="M448.88 129.88C448.88 128.67 448.88 127.99 448.88 127.86C448.88 127.18 448.93 126.5 449.01 125.83C464.19 124.27 470.43 118.25 472.81 117.41C481.44 110.55 480.57 101.25 481.44 99.45C481.44 95.4 480.38 93.46 480.26 92.79C479.09 90.19 477.45 89.09 477.14 88.68C475.83 87.67 474.32 86.96 472.71 86.59C471 86.19 469.26 85.99 467.5 86C461.51 86 457.84 88.11 456.76 88.35C453.61 89.9 450.77 92 448.36 94.55C445.87 97.2 443.75 100.16 442.05 103.36C440.31 106.58 438.87 109.94 437.75 113.42C436.7 116.66 435.89 119.98 435.34 123.35C435.04 125.22 434.82 126.96 434.7 128.57C432.29 128.57 430.96 128.57 430.69 128.57C427.83 135.23 425.24 137.98 424.64 139.02C421.45 142.82 418.95 142.43 418.32 142.81C415.84 142.81 415.39 141.16 415.06 140.98C414.53 139.7 414.26 138.32 414.28 136.93C414.26 134.95 414.47 132.97 414.92 131.05C415.94 126.35 421.02 102.84 430.16 60.53L416.62 62.36C408.1 102.08 403.37 124.15 402.42 128.57C401.9 130.91 401.65 132.92 401.57 133.4C401.36 135 401.25 136.62 401.24 138.23C401.23 140.12 401.43 142 401.83 143.85C402.17 145.47 402.81 147.02 403.72 148.42C404.61 149.74 405.82 150.82 407.23 151.55C409.44 152.73 412.27 152.61 412.83 152.73C414.44 152.69 416.04 152.45 417.59 152.01C420.25 151.29 422.62 149.13 423.18 148.81C426.12 146.33 428.64 142.28 429.24 141.56C431.89 137.5 434.02 132.02 434.55 130.96C434.54 131.4 434.54 131.74 434.54 131.83C434.54 137.44 436 140.47 436.17 141.43C437.79 145.41 440.03 147.25 440.46 147.89C442.22 149.53 444.31 150.78 446.58 151.55C448.91 152.34 451.35 152.73 453.81 152.72C456.32 152.73 458.83 152.49 461.3 152C463.59 151.57 465.77 150.7 467.74 149.46C469.72 148.17 471.41 146.48 472.69 144.5C474.77 141.36 475.27 137.33 475.56 136.53C468.94 142.8 461.68 142.17 460.14 142.8C456.01 142.8 453.1 141.76 451.41 139.67L448.88 129.88ZM456.46 101.54C458.86 97.49 461.42 95.61 461.97 94.95C465.07 92.41 468.03 92.65 468.7 92.4C471.81 92.4 472.26 93.99 472.65 94.16C473.23 95.41 473.52 96.77 473.5 98.15C473.5 107.03 467.67 111.54 467.03 113.03C460.55 119.04 451.41 119.97 449.67 120.74C450.29 117.3 451.17 113.92 452.32 110.62C453.39 107.46 454.78 104.42 456.46 101.54Z" id="cnwsRvjlb"></path><path d="M106.77 57.76C115.99 57.76 124.91 55.76 132.89 51.9C133.86 51.45 134.64 51.05 134.83 50.96C139.21 48.81 144.4 46.53 145.63 41.25C146.53 37.41 144.29 33.46 141.92 30.56C141.92 30.56 139.7 33.07 133.95 36.58C133.69 36.69 133.44 36.82 133.2 36.96C132.24 37.55 131.29 38.11 130.36 38.64C128.92 39.41 127.34 40.21 125.59 41.03C124.67 41.46 124.03 41.8 123.85 41.89C118.9 43.96 113.77 45.13 107.54 45.13C96.17 45.13 84.96 41.12 73.74 36.96C65.6 34.04 56.23 30.03 47.48 30.03C40.72 30.03 33.65 32.65 28.28 37.12C22.29 42.05 18.14 49.13 18.6 57.3C19.28 69.41 32.48 74.1 42.96 73.65C45.52 73.53 48.13 72.78 50.04 71.06C51.72 69.55 53.08 67.65 54.26 65.73C55.14 64.29 57.26 61.33 56.88 59.54C50.09 60.16 45.73 61.45 38.92 61.46C37.81 61.46 34.24 60.77 33.24 60.3C27.98 57.82 33.77 49.39 36.27 47.14C39.18 44.36 43.02 42.51 46.56 42.51C54.09 42.51 63.15 46.52 70.22 49.45C75.59 51.6 81.28 53.61 86.96 54.99C83.66 64.27 57.23 138.46 53.93 147.74C53.64 148.58 53.48 149.47 53.47 150.36C53.62 153.9 57 156.52 60.38 156.52C62.99 156.52 64.99 154.98 65.76 152.67C69.12 143.24 96.04 67.8 99.4 58.37C99.57 58.04 99.68 57.67 99.71 57.3C102.05 57.6 104.41 57.76 106.77 57.76Z" id="amQcrVJ7W"></path><path d="M312.53 57.71C321.73 57.71 330.62 55.71 338.6 51.87C340.06 51.17 341.53 50.43 342.97 49.64C346.45 47.93 348.14 46.84 350.53 42.92C353.47 38.09 347.33 30.57 347.33 30.57C347.33 30.57 343.04 35.41 331 41.04C329.55 41.72 328.62 42.23 328.36 42.37C323.79 44.13 319.01 45.1 313.31 45.1C301.97 45.1 290.78 41.11 279.59 36.96C271.46 34.03 262.11 30.04 253.38 30.04C246.63 30.04 239.58 32.65 234.21 37.11C228.24 42.03 224.1 49.1 224.56 57.25C225.17 69.24 236.36 73.39 246.78 73.39C249.68 73.39 253.08 73.33 255.23 71.86C255.25 71.86 255.38 71.8 255.4 71.79C257.79 70.59 261.3 59.83 261.3 59.83C260.61 59.87 257.2 60.09 251.04 60.47C250.97 60.47 250.93 60.47 250.92 60.47C248.78 60.47 246.48 60.78 244.33 60.78C240.96 60.78 237.59 61.08 237.28 56.94C237.13 53.55 239.12 49.87 242.19 47.1C245.1 44.32 248.93 42.49 252.46 42.49C259.97 42.49 269.01 46.48 276.06 49.4C281.43 51.55 287.1 53.55 292.77 54.94C289.48 64.19 263.11 138.23 259.81 147.49C259.52 148.33 259.37 149.21 259.35 150.1C259.5 153.64 262.88 156.25 266.25 156.25C268.69 156.31 270.88 154.75 271.62 152.41C274.97 143 301.83 67.74 305.19 58.33C305.36 57.99 305.46 57.63 305.48 57.25C307.82 57.55 310.18 57.71 312.53 57.71Z" id="c1xoKMqy1"></path></defs><g><g><use xlink:href="#k4LvYTQzxz" opacity="1" fill="#ffffff" fill-opacity="1"></use><g><use xlink:href="#k4LvYTQzxz" opacity="1" fill-opacity="0" stroke="#000000" stroke-width="1" stroke-opacity="0"></use></g></g><g><use xlink:href="#a5zv5ieCL" opacity="1" fill="#ffffff" fill-opacity="1"></use><g><use xlink:href="#a5zv5ieCL" opacity="1" fill-opacity="0" stroke="#000000" stroke-width="1" stroke-opacity="0"></use></g></g><g><use xlink:href="#i4PkfHIpIv" opacity="1" fill="#ffffff" fill-opacity="1"></use><g><use xlink:href="#i4PkfHIpIv" opacity="1" fill-opacity="0" stroke="#000000" stroke-width="1" stroke-opacity="0"></use></g></g><g><use xlink:href="#cnwsRvjlb" opacity="1" fill="#ffffff" fill-opacity="1"></use><g><use xlink:href="#cnwsRvjlb" opacity="1" fill-opacity="0" stroke="#000000" stroke-width="1" stroke-opacity="0"></use></g></g><g><use xlink:href="#amQcrVJ7W" opacity="1" fill="#ffffff" fill-opacity="1"></use><g><use xlink:href="#amQcrVJ7W" opacity="1" fill-opacity="0" stroke="#000000" stroke-width="1" stroke-opacity="0"></use></g></g><g><use xlink:href="#c1xoKMqy1" opacity="1" fill="#ffffff" fill-opacity="1"></use><g><use xlink:href="#c1xoKMqy1" opacity="1" fill-opacity="0" stroke="#000000" stroke-width="1" stroke-opacity="0"></use></g></g></g></svg>