<svg width="24" height="24" xmlns="http://www.w3.org/2000/svg">

 <g>
  <title>background</title>
  <rect fill="none" id="canvas_background" height="402" width="582" y="-1" x="-1"/>
 </g>
 <g>
  <title>Layer 1</title>
  <path fill="#d95d39" id="settings" d="m22.200001,14.4l-1.200001,-0.7c-1.299999,-0.8 -1.299999,-2.7 0,-3.5l1.200001,-0.7c1,-0.6 1.299999,-1.8 0.699999,-2.7l-1,-1.7c-0.6,-1 -1.799999,-1.3 -2.699999,-0.7l-1.200001,0.7c-1.299999,0.8 -3,-0.2 -3,-1.7l0,-1.4c0,-1.1 -0.9,-2 -2,-2l-2,0c-1.1,0 -2,0.9 -2,2l0,1.3c0,1.5 -1.7,2.5 -3,1.7l-1.2,-0.6c-1,-0.6 -2.2,-0.2 -2.7,0.7l-1,1.7c-0.5,1 -0.2,2.2 0.7,2.8l1.2,0.7c1.3,0.7 1.3,2.7 0,3.4l-1.2,0.7c-1,0.6 -1.3,1.800001 -0.7,2.700001l1,1.699999c0.6,1 1.8,1.300001 2.7,0.700001l1.2,-0.6c1.3,-0.799999 3,0.200001 3,1.700001l0,1.4c0,1.1 0.9,2 2,2l2,0c1.1,0 2,-0.9 2,-2l0,-1.299999c0,-1.5 1.700001,-2.5 3,-1.700001l1.200001,0.700001c1,0.599998 2.199999,0.199999 2.699999,-0.700001l1,-1.700001c0.5,-1.099998 0.200001,-2.299999 -0.699999,-2.9zm-10.200001,1.6c-2.2,0 -4,-1.8 -4,-4c0,-2.2 1.8,-4 4,-4s4,1.8 4,4c0,2.2 -1.8,4 -4,4z"/>
 </g>
</svg>