<svg width="1024" height="1024" xmlns="http://www.w3.org/2000/svg">

 <g>
  <title>background</title>
  <rect fill="none" id="canvas_background" height="402" width="582" y="-1" x="-1"/>
 </g>
 <g>
  <title>Layer 1</title>
  <path fill="#F59320" id="svg_1" d="m433,45c105,282 -127,292 -254.917999,471.315002c-89.083,124.877014 -104.082001,399.684998 216.917999,471.684998c-135,-71 -164,-277 -18,-406c-37.695007,125.10498 31.570007,205.291016 118.652008,175.85199c85.347992,-28.85199 140.800018,32.442017 139.347992,102.14801c-1,48 -16,85 -69,112c0,0 293,-56 293,-342c0,-174 -155,-198.125 -77,-344c-93,8 -125.111023,68.778992 -116,169c6,66 -63,111.333008 -114,81.02002c-41.424988,-24.622009 -40,-73.14502 -4,-109.02002c76.64801,-76.381012 107,-251 -115,-382z"/>
 </g>
</svg>