<svg id="Layer_1" data-name="Layer 1" xmlns="http://www.w3.org/2000/svg" viewBox="0 0 3000 3000"><defs><style>.cls-1{fill:#f59320;}</style></defs><path class="cls-1" d="M969.94,1323.2C912.65,1299.46,839.16,1267,778.13,1267c-12.6,0-25.69,2.9-38.41,8.07a793.31,793.31,0,0,0-28.26,145.25c1.87.19,3.48.3,4.71.3,55.25,0,90.61-10.48,145.64-15.49,3.1,14.55-14.08,38.57-21.24,50.2-9.56,15.54-20.61,30.91-34.22,43.16-15.44,13.91-36.61,20-57.35,20.94a268.73,268.73,0,0,1-41.27-1.41,792.44,792.44,0,0,0,174,479.13l224-629C1059.62,1356.92,1013.53,1340.68,969.94,1323.2Z"/><path class="cls-1" d="M2038.36,1259.27a441,441,0,0,1-57.18-3.74,23.18,23.18,0,0,1-2.48,8.72l-272.19,762.82c-6.21,18.69-22.37,31.16-43.5,31.16-27.34,0-54.68-21.19-55.93-49.86a69.52,69.52,0,0,1,3.73-21.19L1878,1236.83c-46-11.21-92-27.42-135.47-44.87-57.18-23.68-130.5-56.09-191.4-56.09-28.59,0-59.66,15-83.28,37.39-14.31,12.92-25.72,28.31-32.6,44.28-8.91,4.62-18.11,9.16-27.47,13.54-4.73,2.21-9.43,4.51-14,6.83a304,304,0,0,1-68.7,19.78c0-.72-.11-1.43-.14-2.16-3.73-66.06,29.83-123.4,78.3-163.28,43.5-36.15,100.67-57.34,155.35-57.34,70.85,0,146.66,32.41,212.53,56.09,90.73,33.66,181.46,66.06,273.43,66.06,46.23,0,85-7.92,122-22.19,6.51-3.5,13.62-7.08,21.42-10.73q4.15-2,8.15-3.87c-134.34-247.19-395.74-414.92-696.22-414.92-318.6,0-593.28,188.59-719.12,460.52,1.61,0,3.22-.06,4.84-.06,71,0,147,32.48,213,56.21,90.92,33.73,181.84,66.2,274,66.2,50.52,0,92.1-9.45,132.26-26.29q6.65-3.4,14.09-6.89c14.19-6.64,27-13.14,38.63-19.4,7.59-4.32,15.24-8.85,23-13.62a60.57,60.57,0,0,1,6.13-3.08c46.57-28.45,64.59-48.77,64.59-48.77,19.2,23.43,37.39,55.5,30.11,86.66-10,42.76-52.07,61.28-87.58,78.68q-7.9,4-15.75,7.67c-64.76,31.23-137,47.47-211.73,47.47a440.9,440.9,0,0,1-57.29-3.75,23.08,23.08,0,0,1-2.5,8.74L961.36,2082.9c141.35,131.41,330.59,211.75,538.53,211.75,437.62,0,792.38-355.78,792.38-794.65a794.9,794.9,0,0,0-52-283.72C2178.07,1244.58,2109.34,1259.27,2038.36,1259.27ZM1575,1373.42c-.43.22-.89.41-1.35.61-17.44,11.89-45,12.37-68.48,12.37a294.18,294.18,0,0,1-50.53-4.25,635.9,635.9,0,0,0,92.9-45,154.24,154.24,0,0,0,31.51-24.11,112,112,0,0,0,13.64-16.68c1.25-1.89,8.91-18.54,9.73-18.59l20.44-1.29S1594.4,1363.75,1575,1373.42Z"/></svg>