<svg id="Layer_1" data-name="Layer 1" xmlns="http://www.w3.org/2000/svg" viewBox="0 0 3000 3000"><defs><style>.cls-1{fill:#f59320;}</style></defs><path class="cls-1" d="M1207.49,1489.27a32.58,32.58,0,0,0,11.6-6.43,39.15,39.15,0,0,0,9.46-12.24q4-7.65,4-19.28,0-12.24-7.94-20.51t-26.24-8.26a61.16,61.16,0,0,0-23.81,4.59,96.13,96.13,0,0,0-21.06,12.24,169.1,169.1,0,0,0-19.22,17.14q-9.16,9.49-17.71,19.28l11-50.19h-61.65l-41.54,196.5h-1.43q-13.42,31.22-28.38,49t-29.6,17.75q-11.61,0-15.26-8.57a47.61,47.61,0,0,1-3.67-19,113.41,113.41,0,0,1,3.06-27.55l44.55-208.13H932l-41.5,196.5q-6.74,31.83-25.33,49.28t-36.32,17.44a25.52,25.52,0,0,1-19.53-8.57q-7.95-8.57-7.94-26.32a83.13,83.13,0,0,1,2.44-20.2l44.56-208.13H786.69l-41.51,196.5a144.62,144.62,0,0,0-3.66,31.22,106.32,106.32,0,0,0,5.19,34.28,74.65,74.65,0,0,0,14.34,25.71,65.91,65.91,0,0,0,21.37,16.22,60.29,60.29,0,0,0,26.24,5.82q20.75,0,42.43-13.78t39.37-45q2.43,31.22,15.87,45t33,13.78a87.24,87.24,0,0,0,22.28-3.37q12.49-3.36,26.25-15,10.5-8.9,21.56-24.08l-8.2,38.77h61l48.22-225.88a240.17,240.17,0,0,1,27.77-20.51q15-9.48,28.39-9.49c4.47,0,7.93.83,10.37,2.45a41.7,41.7,0,0,1,6.41,5.21c1.83,1.83,3.67,3.57,5.5,5.2s4.57,2.45,8.24,2.45A36.92,36.92,0,0,0,1207.49,1489.27Z"/><path class="cls-1" d="M1446.46,1443.05a50.23,50.23,0,0,0-19.53-15q-12.23-5.5-30.52-5.51a109.67,109.67,0,0,0-17.4,1.53,73.22,73.22,0,0,0-20.14,6.73,109.83,109.83,0,0,0-22.28,15q-11.6,9.8-23.19,25.71l9.76-45.91h-61.65l-64.7,306.07h61L1300,1534.57q29.9-65.49,67.75-65.5,15.87,0,21.37,9.18t5.49,24.49a167.66,167.66,0,0,1-4.58,36.73q-4.57,20.21-10.07,41.93t-10.07,43.77c-3,14.69-35.94,133-35.94,146q0,33.67,14.65,51.12t37.84,17.44a71.73,71.73,0,0,0,14.65-1.83,52,52,0,0,0,16.79-7q8.24-5.21,14.34-15.31t7.32-26.63q-10.38,4.3-18.92,4.29-22,0-22-32.44c0-11,32.89-127.79,35.94-141.47s6.41-27.64,10.07-41.93,7-28.87,10.07-43.77a212.19,212.19,0,0,0,4.58-42.54,121.53,121.53,0,0,0-2.75-26A54.69,54.69,0,0,0,1446.46,1443.05Z"/><path class="cls-1" d="M2205.63,1472.13q-7.32-19.58-19.22-30.3a59.2,59.2,0,0,0-26.25-14.08,126.77,126.77,0,0,0-29-3.36,71.94,71.94,0,0,0-30.83,6.42,116.79,116.79,0,0,0-26.55,17.45l31.13-145.08-62.26,8.57-66.53,310.36-.06.28q-13.38,31-28.26,48.69t-29.6,17.75q-11.61,0-15.26-8.57a47.78,47.78,0,0,1-3.66-19,113.93,113.93,0,0,1,3-27.55l44.56-208.13h-61.65l-6.11,29.38q-4.89-19-20.14-25.71a73.91,73.91,0,0,0-29.91-6.73,110.49,110.49,0,0,0-47.31,10.1,137.68,137.68,0,0,0-38.76,26.93,201.42,201.42,0,0,0-30.52,38.87,250,250,0,0,0-22,45.91,320.66,320.66,0,0,0-13.12,47.75,238.29,238.29,0,0,0-4.58,44.69q0,26.94,6.71,45.6t17.7,30.61a63.93,63.93,0,0,0,25,17.14,81.92,81.92,0,0,0,28.69,5.21q29.3,0,54-17.45a128.64,128.64,0,0,0,38.76-42.54q2.43,31.83,15.56,45.91t33.27,14.08a87.12,87.12,0,0,0,22.28-3.37q12.51-3.36,26.25-15t28.38-34c.8-1.22,1.59-2.48,2.39-3.77a79.28,79.28,0,0,0,4.56,20.6q5.17,13.47,14.65,21.12a58.16,58.16,0,0,0,22.89,11,120.48,120.48,0,0,0,29.3,3.37q37.84,0,69-19.59a194.3,194.3,0,0,0,53.72-50.51,242.74,242.74,0,0,0,34.79-68.25q12.21-37.34,12.21-72.85Q2213,1491.73,2205.63,1472.13Zm-361.89,150a86.58,86.58,0,0,1-10.38,26.32,96.75,96.75,0,0,1-16.78,21.12,84.41,84.41,0,0,1-19.84,14.08,44.83,44.83,0,0,1-20.14,5.2q-17.71,0-28.08-12.85t-10.38-47.75q0-22.63,6.72-52.65a237.18,237.18,0,0,1,20.14-56.31q13.41-26.31,33-44.69t44.56-18.36q14,0,21.36,8.26a37.5,37.5,0,0,1,9.16,18.67Zm305.74-32.75q-7.33,29.09-20.45,52t-30.83,37.34q-17.7,14.4-37.84,14.39-30.53,0-30.52-31.83a67.08,67.08,0,0,1,.92-11c.61-3.68,1.31-7.75,2.13-12.25l36-161a142.36,142.36,0,0,1,21.36-15,45.45,45.45,0,0,1,22.58-5.81q22,0,33,19.89t11,54.79A238.58,238.58,0,0,1,2149.48,1589.36Z"/><path class="cls-1" d="M2444.11,1674.14q-11.84-14.69-11.84-45.91v-9.49a76.23,76.23,0,0,1,.61-9.49q71.13-7.34,111.56-39.48t40.42-84.17q0-19-5.49-31.22t-14.65-19.28a54.31,54.31,0,0,0-20.75-9.8,105.76,105.76,0,0,0-24.42-2.75q-28.08,0-50.35,11a138,138,0,0,0-39.38,29.07,192.66,192.66,0,0,0-29.6,41.32,278.17,278.17,0,0,0-20.14,47.14,321.06,321.06,0,0,0-11.3,46.52q-2.13,13.19-3,24.49H2347q-13.42,31.22-28.38,49T2289,1688.83q-11.6,0-15.26-8.57a47.78,47.78,0,0,1-3.66-19,113.93,113.93,0,0,1,3-27.55l71.42-330.56-63.48,8.57-66.53,310.36q-2.46,11-4,22.65a173.54,173.54,0,0,0-1.53,22.65,120.1,120.1,0,0,0,2.75,26.32,63.22,63.22,0,0,0,8.85,21.42,44.24,44.24,0,0,0,16.48,14.7q10.36,5.51,26.25,5.51a87.24,87.24,0,0,0,22.28-3.37q12.49-3.36,26.24-15t28.39-34q12.43-19,24.89-49.69-.06,2.09-.06,4.08,0,26.33,7.63,45t20.15,30.31a79.22,79.22,0,0,0,28.68,17.14,104.39,104.39,0,0,0,33.88,5.51,178.55,178.55,0,0,0,35.1-3.37,87.37,87.37,0,0,0,30.21-11.94,79,79,0,0,0,23.2-23.26q9.75-14.68,13.43-37.34-31,29.38-72.29,29.38Q2456,1688.83,2444.11,1674.14Zm4.26-136.2a235.28,235.28,0,0,1,19.42-42.55q11.24-19,25.81-30.91t31.57-11.94q14.57,0,18.51,8.27a42.66,42.66,0,0,1,4,18.67q0,41.63-30.36,69.78t-81.34,36.12A309.17,309.17,0,0,1,2448.37,1537.94Z"/><path class="cls-1" d="M795.51,1288a255.81,255.81,0,0,0,33.12,2.16c43.2,0,85-9.38,122.42-27.44q4.53-2.15,9.1-4.43c20.53-10.06,44.86-20.77,50.63-45.49,4.21-18-6.31-36.56-17.4-50.11,0,0-10.42,11.75-37.35,28.2a36.62,36.62,0,0,0-3.54,1.78c-4.5,2.76-8.92,5.38-13.31,7.88-6.72,3.62-14.13,7.37-22.33,11.21q-4.32,2-8.15,4c-23.22,9.74-47.26,15.2-76.47,15.2-53.29,0-105.85-18.78-158.42-38.28-38.16-13.72-82.09-32.49-123.13-32.49-31.69,0-64.81,12.27-90,33.22-28.08,23.11-47.52,56.32-45.36,94.6,3.2,56.79,65.08,78.77,114.21,76.62,12-.53,24.23-4.07,33.16-12.11,7.87-7.08,14.26-16,19.78-25,4.14-6.73,14.07-20.62,12.28-29-31.81,2.9-52.25,8.93-84.2,9-5.16,0-21.94-3.25-26.61-5.45-24.64-11.6,2.51-51.16,14.19-61.7,13.68-13,31.68-21.67,48.25-21.67,35.28,0,77.76,18.78,110.89,32.5,25.2,10.11,51.85,19.5,78.49,26L580.92,1711.94a40.22,40.22,0,0,0-2.16,12.28c.72,16.61,16.56,28.89,32.4,28.89,12.25,0,21.61-7.22,25.21-18.06l157.7-442A13.4,13.4,0,0,0,795.51,1288Z"/><path class="cls-1" d="M1760.09,1287.77a254.74,254.74,0,0,0,33.05,2.16c43.12,0,84.79-9.37,122.16-27.38,6.88-3.25,13.74-6.75,20.5-10.46,16.34-8,24.22-13.09,35.42-31.48,13.8-22.65-15-57.88-15-57.88s-20.08,22.65-76.53,49.07q-6.77,3.17-12.39,6.21c-21.4,8.25-43.79,12.83-70.52,12.83-53.17,0-105.62-18.74-158.08-38.19-38.08-13.7-81.91-32.43-122.87-32.43-31.62,0-64.67,12.25-89.82,33.15-28,23.06-47.43,56.2-45.27,94.4,2.87,56.21,55.33,75.66,104.19,75.66,13.56,0,29.51-.28,39.59-7.15l.78-.35c11.22-5.6,27.67-56.06,27.67-56.06l-48.08,3h-.56c-10.06,0-20.84,1.44-30.9,1.44-15.81,0-31.61,1.44-33.05-18-.72-15.86,8.62-33.15,23-46.12,13.66-13,31.62-21.62,48.15-21.62,35.21,0,77.6,18.73,110.65,32.43,25.15,10.08,51.74,19.45,78.33,25.94L1546,1710.77a40.06,40.06,0,0,0-2.16,12.26c.72,16.57,16.53,28.82,32.34,28.82a25.7,25.7,0,0,0,25.15-18l157.36-441A13.35,13.35,0,0,0,1760.09,1287.77Z"/></svg>